# xmcd
#
# Track frame offsets: 
#        150
#        15441
#        38936
#        51433
#        66433
#        91236
#        125268
#        146912
#        180538
#        221282
#        268953
#        298466
#        343600
#
# Disc length: 4588 seconds
#
# Revision: 1
# Processed by: cddbd v1.5.2PL0 Copyright (c) Steve Scherf et al.
# Submitted via: ExactAudioCopy v1.0b3
#
DISCID=d011ea0d
DTITLE=Various Artist - The Rough Guide To Congo Gold
DYEAR=2008
DGENRE=Rumba
TTITLE0=Wendo Kolosoy and Henry Bowane - Marie Louise 
TTITLE1=Grand Kalle and L'African Jazz - Parafifi 
TTITLE2=Tabu Ley Rochereau and L'African Jazz - Adios Tete 
TTITLE3=Dr Nico and African Fiesta - Mamu Wa Mpoy
TTITLE4=Verckys and Orchestre Veve - Marcello Tozangana
TTITLE5=Franco and TPOK Jazz - Azda
TTITLE6=Tabu Ley Rochereau and L'African Jazz - Nakweyi Carreau
TTITLE7=Sam Mangwana - Tchimurenga Zimbabwe
TTITLE8=Tabu Ley Rochereau and Mbilia Bel - Eswi Yo Wapi
TTITLE9=Franco and TPOK Jazz - Mujinga
TTITLE10=Papa Noel - Bon Samaritain
TTITLE11=Madilu System - Biya
TTITLE12=Data track
EXTD=
EXTT0=
EXTT1=
EXTT2=
EXTT3=
EXTT4=
EXTT5=
EXTT6=
EXTT7=
EXTT8=
EXTT9=
EXTT10=
EXTT11=
EXTT12=
PLAYORDER=
